Coordinates
version=1
nRows=15
nColumns=42
inDegrees=yes

Units are S.I. units (second, meters, Newtons, ...)
If the header above contains a line with 'inDegrees', this indicates whether rotational values are in degrees (yes) or radians (no).

endheader
time	pelvis_tilt	pelvis_list	pelvis_rotation	pelvis_tx	pelvis_ty	pelvis_tz	hip_flexion_r	hip_adduction_r	hip_rotation_r	knee_angle_r	knee_adduction_r	knee_angle_r_beta	ankle_angle_r	subtalar_angle_r	mtp_angle_r	hip_flexion_l	hip_adduction_l	hip_rotation_l	knee_angle_l	knee_adduction_l	knee_angle_l_beta	ankle_angle_l	subtalar_angle_l	mtp_angle_l	lumbar_extension	lumbar_bending	lumbar_rotation	arm_flex_r	arm_add_r	arm_rot_r	elbow_flex_r	pro_sup_r	wrist_flex_r	wrist_dev_r	arm_flex_l	arm_add_l	arm_rot_l	elbow_flex_l	pro_sup_l	wrist_flex_l	wrist_dev_l
      0.43000000	     14.97565362	     -2.14834084	      0.54937266	     -1.14089408	      0.90645334	     -0.26014382	    -20.28026615	      1.19232456	    -38.78071703	     31.13934725	     -7.96662636	      0.54348414	     29.06849334	     37.94211876	     -9.40830538	     19.06727209	     -0.71567879	     -9.96425950	     34.35584904	     -9.62006301	      0.59962268	     14.65262743	      4.73229362	     -9.40830538	    -36.26574002	      1.12649955	      0.93077416	     37.31124961	    -19.14451543	      6.09985697	     57.81508927	     90.00000001	      0.00000000	      0.00000000	    -10.51219898	     -6.73109730	      0.91967850	     33.41766829	     90.00000001	      0.00000000	      0.00000000
      0.44000000	     14.96844874	     -2.01143825	      0.57778180	     -1.13188037	      0.90625713	     -0.26140704	    -20.72320579	      0.97910335	    -38.64930935	     31.38009346	     -8.29434214	      0.54768595	     28.93420489	     37.91383219	     -9.40402345	     18.76744684	     -0.43962658	     -9.70677823	     35.01565544	     -9.68319030	      0.61113848	     14.59912771	      4.81995812	     -9.40402345	    -36.24277345	      0.89715918	      0.78206720	     36.36022398	    -18.99579694	      6.11802280	     57.45061042	     90.00000001	      0.00000000	      0.00000000	    -10.14999511	     -6.81510973	      0.97856292	     33.51086811	     90.00000001	      0.00000000	      0.00000000
      0.45000000	     14.98614794	     -1.80370106	      0.66415409	     -1.12271139	      0.90623414	     -0.26280335	    -21.21931939	      0.64931162	    -38.57039425	     31.66610441	     -8.47068931	      0.55267778	     28.66942732	     37.89670524	     -9.39934023	     18.48225812	     -0.12509635	     -9.45878658	     35.81284614	     -9.65908468	      0.62505208	     14.59042624	      4.83010875	     -9.39934023	    -36.21819609	      0.62244497	      0.61524547	     35.30306317	    -18.91722678	      6.06502391	     56.96106212	     90.00000001	      0.00000000	      0.00000000	     -9.69844497	     -7.00555393	      1.01822011	     33.58073729	     90.00000001	      0.00000000	      0.00000000
      0.46000000	     14.91735944	     -1.54156685	      0.78976475	     -1.11360662	      0.90631909	     -0.26445727	    -21.60215964	      0.08364887	    -38.66830365	     32.13446712	     -8.37520248	      0.56085225	     27.15200798	     37.90110331	     -9.27537798	     18.23956575	      0.32108318	     -8.41084044	     36.65832725	     -9.13754745	      0.63980851	     14.40157316	      2.65108417	     -9.27537798	    -36.10550547	      0.32181488	      0.56896186	     34.43620318	    -18.26331608	      3.91414769	     55.43656210	     90.00000001	      0.00000000	      0.00000000	     -8.88470741	     -7.39035986	      2.15991844	     32.82192576	     90.00000001	      0.00000000	      0.00000000
      0.47000000	     14.90726725	     -1.30627405	      0.93781900	     -1.10438692	      0.90653903	     -0.26606736	    -22.02322404	     -0.29688869	    -38.62351662	     32.51840072	     -8.50441920	      0.56755316	     26.62289764	     37.87401606	     -9.26356153	     17.96580815	      0.65388473	     -8.20800067	     37.36272729	     -9.04555965	      0.65210261	     14.38719280	      2.52977273	     -9.26356153	    -36.07684195	      0.05346852	      0.40480959	     33.25775940	    -18.20888788	      3.89547441	     54.84630576	     90.00000001	      0.00000000	      0.00000000	     -8.31166362	     -7.59774583	      2.15115214	     32.88730329	     90.00000001	      0.00000000	      0.00000000
      0.48000000	     14.81804741	     -1.06158212	      1.11420182	     -1.09526104	      0.90691655	     -0.26781038	    -22.24512521	     -0.72028108	    -38.61265699	     33.07944769	     -8.68425015	      0.57734528	     25.10894642	     37.86245001	     -9.14100651	     17.64429890	      1.10346962	     -7.40080784	     37.86771475	     -8.70560184	      0.66091630	     13.96626028	      0.80339477	     -9.14100651	    -35.97289944	     -0.20734114	      0.20381298	     32.23102015	    -17.76756342	      3.07837693	     53.60168831	     90.00000001	      0.00000000	      0.00000000	     -7.41465811	     -7.66821299	      2.10310231	     32.16408053	     90.00000001	      0.00000000	      0.00000000
      0.49000000	     14.78174727	     -0.83353755	      1.30882815	     -1.08603641	      0.90732387	     -0.26949669	    -22.47336635	     -1.10299207	    -38.58574890	     33.75112087	     -8.91112285	      0.58906819	     23.96232748	     37.77757014	     -9.11930326	     17.29197034	      1.42545184	     -7.34136908	     38.30249679	     -8.65887759	      0.66850468	     13.89664060	      0.65386175	     -9.11930326	    -35.90867997	     -0.46211319	      0.07625023	     30.98684922	    -17.67084489	      3.01216179	     52.80535429	     90.00000001	      0.00000000	      0.00000000	     -6.66378067	     -7.85943046	      2.02986604	     32.12094638	     90.00000001	      0.00000000	      0.00000000
      0.50000000	     14.72358071	     -0.63166774	      1.55043729	     -1.07684813	      0.90788129	     -0.27133158	    -22.59771720	     -1.43193560	    -38.62148385	     34.42345357	     -9.24599269	      0.60080260	     22.11459451	     37.71955154	     -9.06677571	     16.90843240	      1.75057956	     -7.25124903	     38.60576466	     -8.62481443	      0.67379770	     13.61548562	      0.29543205	     -9.06677571	    -35.82621787	     -0.62676229	     -0.14892185	     29.85481433	    -17.31423436	      2.66792402	     51.54955866	     90.00000001	      0.00000000	      0.00000000	     -5.73732910	     -8.01068695	      1.82384508	     31.52158403	     90.00000001	      0.00000000	      0.00000000
      0.51000000	     14.71914211	     -0.52194473	      1.88131289	     -1.06767307	      0.90851500	     -0.27310463	    -22.74705426	     -1.42125590	    -38.35368362	     35.00787500	     -9.76027859	      0.61100268	     21.77210838	     37.65914283	     -9.06366241	     16.44493580	      1.95480387	     -7.26653266	     38.85090204	     -8.67350239	      0.67807616	     13.57804878	      0.32484691	     -9.06366241	    -35.84239004	     -0.67515797	     -0.50505238	     28.54803269	    -17.00672771	      2.76447777	     51.02901660	     90.00000001	      0.00000000	      0.00000000	     -5.08505643	     -8.18151121	      1.78276479	     31.67579498	     90.00000001	      0.00000000	      0.00000000
      0.52000000	     14.56570570	     -0.12052440	      1.96215187	     -1.05854712	      0.90899154	     -0.27515614	    -22.41031970	     -2.31850485	    -38.53048213	     36.57996750	    -10.12036441	      0.63844087	     19.57210332	     37.28144921	     -9.04814726	     16.02268922	      2.55005492	     -7.60377219	     38.86598773	     -8.85846875	      0.67833945	     13.48372987	      0.48862033	     -9.04814726	    -35.65708629	     -1.09730583	     -0.43043996	     27.12179847	    -17.00411920	      2.65551980	     49.81194732	     90.00000001	      0.00000000	      0.00000000	     -4.08883736	     -8.36361872	      1.66533558	     31.54575026	     90.00000001	      0.00000000	      0.00000000
      0.53000000	     14.49017063	      0.04035368	      2.24796917	     -1.04940404	      0.90964920	     -0.27706037	    -22.12671024	     -2.59033494	    -38.60275836	     37.77121560	    -10.81590142	      0.65923207	     16.83207120	     37.07379195	     -8.91926958	     15.57529561	      2.84499469	     -8.37227061	     38.82673839	     -9.41579937	      0.67765442	     13.55781544	      1.70049708	     -8.91926958	    -35.53314561	     -1.19876421	     -0.73581878	     26.23450808	    -16.29716047	      1.98156539	     47.82518325	     90.00000001	      0.00000000	      0.00000000	     -2.83770943	     -8.25487020	      0.61973909	     30.30299304	     90.00000001	      0.00000000	      0.00000000
      0.54000000	     14.42046768	      0.29280118	      2.48774561	     -1.04027653	      0.91028096	     -0.27908071	    -21.72781369	     -3.01459956	    -38.57287881	     39.22502935	    -11.55382844	      0.68460591	     14.56234049	     36.56572813	     -8.87168652	     15.05891327	      3.26363910	     -8.90628397	     38.75353742	     -9.77937912	      0.67637682	     13.54240852	      2.28904720	     -8.87168652	    -35.42799860	     -1.40443469	     -0.96230763	     24.93188550	    -16.02490235	      2.11539017	     46.73824359	     90.00000001	      0.00000000	      0.00000000	     -1.95763861	     -8.38263194	      0.37216345	     30.22777041	     90.00000001	      0.00000000	      0.00000000
      0.55000000	     14.33324247	      0.58175755	      2.70884663	     -1.03131305	      0.91084070	     -0.28119198	    -21.13029838	     -3.53321769	    -38.49875492	     41.04036946	    -12.35394034	      0.71628957	     12.83863006	     35.97831857	     -8.85563734	     14.51508443	      3.79517648	     -9.26790942	     38.60112375	    -10.13240848	      0.67371670	     13.69551888	      2.68285285	     -8.85563734	    -35.32814366	     -1.62072713	     -1.15771040	     23.55087304	    -15.76990421	      2.23406255	     45.80824051	     90.00000001	      0.00000000	      0.00000000	     -1.07199227	     -8.53343955	      0.29099938	     30.32764769	     90.00000001	      0.00000000	      0.00000000
      0.56000000	     14.25069011	      0.86038704	      2.95180808	     -1.02239570	      0.91140470	     -0.28331363	    -20.41203440	     -4.01624830	    -38.40426015	     42.96774436	    -13.24348207	      0.74992861	     10.63334851	     35.08738865	     -8.83860086	     13.97639869	      4.33626634	     -9.68933055	     38.45158142	    -10.58623286	      0.67110670	     13.89847150	      3.26014751	     -8.83860086	    -35.23376710	     -1.81954616	     -1.40314190	     22.25351627	    -15.42969504	      2.39386501	     44.70076657	     90.00000001	      0.00000000	      0.00000000	     -0.14526271	     -8.68406748	      0.21786266	     30.32555463	     90.00000001	      0.00000000	      0.00000000
      0.57000000	     14.25661183	      1.04563310	      3.24308516	     -1.01361559	      0.91206592	     -0.28535898	    -19.67993247	     -4.28122054	    -38.16404574	     44.89318354	    -14.17475103	      0.78353386	      7.97163288	     33.46950263	     -8.80353248	     13.40577360	      4.71108909	    -10.26286353	     38.38735834	    -11.09156092	      0.66998579	     14.25901798	      4.37428306	     -8.80353248	    -35.24181506	     -1.88297099	     -1.69194572	     21.20600967	    -14.98881256	      2.61342859	     43.17949065	     90.00000001	      0.00000000	      0.00000000	      0.90261122	     -8.84991361	      0.06621858	     30.08370626	     90.00000001	      0.00000000	      0.00000000
